<svg xmlns="http://www.w3.org/2000/svg" viewBox="0 0 220 220" role="img" aria-labelledby="title desc">
  <title id="title">Harf-e-Noor calligraphy mark</title>
  <desc id="desc">Minimal black calligraphic mark with a red seal accent.</desc>
  <rect width="220" height="220" fill="#f5ecdc"/>
  <path d="M68 164c48-42 39-99 87-134 28-21 59-17 75-43-5 61-41 88-76 119-31 28-49 52-63 91"
    fill="none" stroke="#171511" stroke-width="16" stroke-linecap="round" stroke-linejoin="round"/>
  <path d="M40 78c46-9 87-2 124 20 30 18 56 19 79-5"
    fill="none" stroke="#171511" stroke-width="9" stroke-linecap="round"/>
  <path d="M98 153c44-8 75-29 86-64 9-28-6-46-27-37-19 8-23 33-8 52 18 23 54 26 89 12"
    fill="none" stroke="#171511" stroke-width="12" stroke-linecap="round" stroke-linejoin="round"/>
  <path d="M27 177c24-8 43-22 57-42" fill="none" stroke="#9b2f23" stroke-width="9" stroke-linecap="round"/>
  <rect x="169" y="148" width="31" height="31" fill="none" stroke="#9b2f23" stroke-width="5"/>
</svg>
